<svg xmlns="http://www.w3.org/2000/svg" viewBox="-118.86 -49.00 567.53 290.87" width="568" height="291">
<polygon points="12.98,0.24 24.11,4.74 12.98,9.24 1.85,4.74" fill="#0e4429"/>
<polygon points="1.85,9.74 1.85,4.74 12.98,9.24 12.98,14.24" fill="#0c3b24"/>
<polygon points="12.98,14.24 12.98,9.24 24.11,4.74 24.11,9.74" fill="#0a321e"/>
<polygon points="0.00,8.49 11.13,12.98 0.00,17.48 -11.13,12.98" fill="#161b22"/>
<polygon points="-11.13,14.98 -11.13,12.98 0.00,17.48 0.00,19.48" fill="#13171d"/>
<polygon points="0.00,19.48 0.00,17.48 11.13,12.98 11.13,14.98" fill="#101319"/>
<polygon points="25.96,8.49 37.09,12.98 25.96,17.48 14.83,12.98" fill="#161b22"/>
<polygon points="14.83,14.98 14.83,12.98 25.96,17.48 25.96,19.48" fill="#13171d"/>
<polygon points="25.96,19.48 25.96,17.48 37.09,12.98 37.09,14.98" fill="#101319"/>
<polygon points="38.94,13.73 50.07,18.23 38.94,22.72 27.82,18.23" fill="#161b22"/>
<polygon points="27.82,20.23 27.82,18.23 38.94,22.72 38.94,24.72" fill="#13171d"/>
<polygon points="38.94,24.72 38.94,22.72 50.07,18.23 50.07,20.23" fill="#101319"/>
<polygon points="-12.98,10.73 -1.85,15.23 -12.98,19.72 -24.11,15.23" fill="#0e4429"/>
<polygon points="-24.11,20.23 -24.11,15.23 -12.98,19.72 -12.98,24.72" fill="#0c3b24"/>
<polygon points="-12.98,24.72 -12.98,19.72 -1.85,15.23 -1.85,20.23" fill="#0a321e"/>
<polygon points="12.98,10.73 24.11,15.23 12.98,19.72 1.85,15.23" fill="#0e4429"/>
<polygon points="1.85,20.23 1.85,15.23 12.98,19.72 12.98,24.72" fill="#0c3b24"/>
<polygon points="12.98,24.72 12.98,19.72 24.11,15.23 24.11,20.23" fill="#0a321e"/>
<polygon points="-51.92,18.98 -40.80,23.47 -51.92,27.97 -63.05,23.47" fill="#161b22"/>
<polygon points="-63.05,25.47 -63.05,23.47 -51.92,27.97 -51.92,29.97" fill="#13171d"/>
<polygon points="-51.92,29.97 -51.92,27.97 -40.80,23.47 -40.80,25.47" fill="#101319"/>
<polygon points="0.00,18.98 11.13,23.47 0.00,27.97 -11.13,23.47" fill="#161b22"/>
<polygon points="-11.13,25.47 -11.13,23.47 0.00,27.97 0.00,29.97" fill="#13171d"/>
<polygon points="0.00,29.97 0.00,27.97 11.13,23.47 11.13,25.47" fill="#101319"/>
<polygon points="51.92,18.98 63.05,23.47 51.92,27.97 40.80,23.47" fill="#161b22"/>
<polygon points="40.80,25.47 40.80,23.47 51.92,27.97 51.92,29.97" fill="#13171d"/>
<polygon points="51.92,29.97 51.92,27.97 63.05,23.47 63.05,25.47" fill="#101319"/>
<polygon points="-25.96,15.98 -14.83,20.47 -25.96,24.97 -37.09,20.47" fill="#0e4429"/>
<polygon points="-37.09,25.47 -37.09,20.47 -25.96,24.97 -25.96,29.97" fill="#0c3b24"/>
<polygon points="-25.96,29.97 -25.96,24.97 -14.83,20.47 -14.83,25.47" fill="#0a321e"/>
<polygon points="25.96,15.98 37.09,20.47 25.96,24.97 14.83,20.47" fill="#0e4429"/>
<polygon points="14.83,25.47 14.83,20.47 25.96,24.97 25.96,29.97" fill="#0c3b24"/>
<polygon points="25.96,29.97 25.96,24.97 37.09,20.47 37.09,25.47" fill="#0a321e"/>
<polygon points="12.98,24.22 24.11,28.72 12.98,33.21 1.85,28.72" fill="#161b22"/>
<polygon points="1.85,30.72 1.85,28.72 12.98,33.21 12.98,35.21" fill="#13171d"/>
<polygon points="12.98,35.21 12.98,33.21 24.11,28.72 24.11,30.72" fill="#101319"/>
<polygon points="-38.94,21.22 -27.82,25.72 -38.94,30.21 -50.07,25.72" fill="#0e4429"/>
<polygon points="-50.07,30.72 -50.07,25.72 -38.94,30.21 -38.94,35.21" fill="#0c3b24"/>
<polygon points="-38.94,35.21 -38.94,30.21 -27.82,25.72 -27.82,30.72" fill="#0a321e"/>
<polygon points="-12.98,21.22 -1.85,25.72 -12.98,30.21 -24.11,25.72" fill="#0e4429"/>
<polygon points="-24.11,30.72 -24.11,25.72 -12.98,30.21 -12.98,35.21" fill="#0c3b24"/>
<polygon points="-12.98,35.21 -12.98,30.21 -1.85,25.72 -1.85,30.72" fill="#0a321e"/>
<polygon points="38.94,21.22 50.07,25.72 38.94,30.21 27.82,25.72" fill="#0e4429"/>
<polygon points="27.82,30.72 27.82,25.72 38.94,30.21 38.94,35.21" fill="#0c3b24"/>
<polygon points="38.94,35.21 38.94,30.21 50.07,25.72 50.07,30.72" fill="#0a321e"/>
<polygon points="64.90,21.22 76.03,25.72 64.90,30.21 53.78,25.72" fill="#0e4429"/>
<polygon points="53.78,30.72 53.78,25.72 64.90,30.21 64.90,35.21" fill="#0c3b24"/>
<polygon points="64.90,35.21 64.90,30.21 76.03,25.72 76.03,30.72" fill="#0a321e"/>
<polygon points="-64.90,9.22 -53.78,13.72 -64.90,18.21 -76.03,13.72" fill="#39d353"/>
<polygon points="-76.03,30.72 -76.03,13.72 -64.90,18.21 -64.90,35.21" fill="#32b949"/>
<polygon points="-64.90,35.21 -64.90,18.21 -53.78,13.72 -53.78,30.72" fill="#2a9c3d"/>
<polygon points="-51.92,29.47 -40.80,33.96 -51.92,38.46 -63.05,33.96" fill="#161b22"/>
<polygon points="-63.05,35.96 -63.05,33.96 -51.92,38.46 -51.92,40.46" fill="#13171d"/>
<polygon points="-51.92,40.46 -51.92,38.46 -40.80,33.96 -40.80,35.96" fill="#101319"/>
<polygon points="51.92,29.47 63.05,33.96 51.92,38.46 40.80,33.96" fill="#161b22"/>
<polygon points="40.80,35.96 40.80,33.96 51.92,38.46 51.92,40.46" fill="#13171d"/>
<polygon points="51.92,40.46 51.92,38.46 63.05,33.96 63.05,35.96" fill="#101319"/>
<polygon points="77.88,29.47 89.01,33.96 77.88,38.46 66.76,33.96" fill="#161b22"/>
<polygon points="66.76,35.96 66.76,33.96 77.88,38.46 77.88,40.46" fill="#13171d"/>
<polygon points="77.88,40.46 77.88,38.46 89.01,33.96 89.01,35.96" fill="#101319"/>
<polygon points="-77.88,26.47 -66.76,30.96 -77.88,35.46 -89.01,30.96" fill="#0e4429"/>
<polygon points="-89.01,35.96 -89.01,30.96 -77.88,35.46 -77.88,40.46" fill="#0c3b24"/>
<polygon points="-77.88,40.46 -77.88,35.46 -66.76,30.96 -66.76,35.96" fill="#0a321e"/>
<polygon points="-25.96,26.47 -14.83,30.96 -25.96,35.46 -37.09,30.96" fill="#0e4429"/>
<polygon points="-37.09,35.96 -37.09,30.96 -25.96,35.46 -25.96,40.46" fill="#0c3b24"/>
<polygon points="-25.96,40.46 -25.96,35.46 -14.83,30.96 -14.83,35.96" fill="#0a321e"/>
<polygon points="25.96,26.47 37.09,30.96 25.96,35.46 14.83,30.96" fill="#0e4429"/>
<polygon points="14.83,35.96 14.83,30.96 25.96,35.46 25.96,40.46" fill="#0c3b24"/>
<polygon points="25.96,40.46 25.96,35.46 37.09,30.96 37.09,35.96" fill="#0a321e"/>
<polygon points="0.00,22.47 11.13,26.96 0.00,31.46 -11.13,26.96" fill="#006d32"/>
<polygon points="-11.13,35.96 -11.13,26.96 0.00,31.46 0.00,40.46" fill="#005f2c"/>
<polygon points="0.00,40.46 0.00,31.46 11.13,26.96 11.13,35.96" fill="#005025"/>
<polygon points="-38.94,34.71 -27.82,39.21 -38.94,43.70 -50.07,39.21" fill="#161b22"/>
<polygon points="-50.07,41.21 -50.07,39.21 -38.94,43.70 -38.94,45.70" fill="#13171d"/>
<polygon points="-38.94,45.70 -38.94,43.70 -27.82,39.21 -27.82,41.21" fill="#101319"/>
<polygon points="64.90,34.71 76.03,39.21 64.90,43.70 53.78,39.21" fill="#161b22"/>
<polygon points="53.78,41.21 53.78,39.21 64.90,43.70 64.90,45.70" fill="#13171d"/>
<polygon points="64.90,45.70 64.90,43.70 76.03,39.21 76.03,41.21" fill="#101319"/>
<polygon points="-64.90,31.71 -53.78,36.21 -64.90,40.70 -76.03,36.21" fill="#0e4429"/>
<polygon points="-76.03,41.21 -76.03,36.21 -64.90,40.70 -64.90,45.70" fill="#0c3b24"/>
<polygon points="-64.90,45.70 -64.90,40.70 -53.78,36.21 -53.78,41.21" fill="#0a321e"/>
<polygon points="12.98,31.71 24.11,36.21 12.98,40.70 1.85,36.21" fill="#0e4429"/>
<polygon points="1.85,41.21 1.85,36.21 12.98,40.70 12.98,45.70" fill="#0c3b24"/>
<polygon points="12.98,45.70 12.98,40.70 24.11,36.21 24.11,41.21" fill="#0a321e"/>
<polygon points="38.94,27.71 50.07,32.21 38.94,36.70 27.82,32.21" fill="#006d32"/>
<polygon points="27.82,41.21 27.82,32.21 38.94,36.70 38.94,45.70" fill="#005f2c"/>
<polygon points="38.94,45.70 38.94,36.70 50.07,32.21 50.07,41.21" fill="#005025"/>
<polygon points="90.86,23.71 101.99,28.21 90.86,32.70 79.74,28.21" fill="#26a641"/>
<polygon points="79.74,41.21 79.74,28.21 90.86,32.70 90.86,45.70" fill="#219239"/>
<polygon points="90.86,45.70 90.86,32.70 101.99,28.21 101.99,41.21" fill="#1c7a30"/>
<polygon points="-12.98,19.71 -1.85,24.21 -12.98,28.70 -24.11,24.21" fill="#39d353"/>
<polygon points="-24.11,41.21 -24.11,24.21 -12.98,28.70 -12.98,45.70" fill="#32b949"/>
<polygon points="-12.98,45.70 -12.98,28.70 -1.85,24.21 -1.85,41.21" fill="#2a9c3d"/>
<polygon points="-51.92,39.96 -40.80,44.45 -51.92,48.95 -63.05,44.45" fill="#161b22"/>
<polygon points="-63.05,46.45 -63.05,44.45 -51.92,48.95 -51.92,50.95" fill="#13171d"/>
<polygon points="-51.92,50.95 -51.92,48.95 -40.80,44.45 -40.80,46.45" fill="#101319"/>
<polygon points="0.00,39.96 11.13,44.45 0.00,48.95 -11.13,44.45" fill="#161b22"/>
<polygon points="-11.13,46.45 -11.13,44.45 0.00,48.95 0.00,50.95" fill="#13171d"/>
<polygon points="0.00,50.95 0.00,48.95 11.13,44.45 11.13,46.45" fill="#101319"/>
<polygon points="25.96,39.96 37.09,44.45 25.96,48.95 14.83,44.45" fill="#161b22"/>
<polygon points="14.83,46.45 14.83,44.45 25.96,48.95 25.96,50.95" fill="#13171d"/>
<polygon points="25.96,50.95 25.96,48.95 37.09,44.45 37.09,46.45" fill="#101319"/>
<polygon points="51.92,36.96 63.05,41.45 51.92,45.95 40.80,41.45" fill="#0e4429"/>
<polygon points="40.80,46.45 40.80,41.45 51.92,45.95 51.92,50.95" fill="#0c3b24"/>
<polygon points="51.92,50.95 51.92,45.95 63.05,41.45 63.05,46.45" fill="#0a321e"/>
<polygon points="103.84,36.96 114.97,41.45 103.84,45.95 92.72,41.45" fill="#0e4429"/>
<polygon points="92.72,46.45 92.72,41.45 103.84,45.95 103.84,50.95" fill="#0c3b24"/>
<polygon points="103.84,50.95 103.84,45.95 114.97,41.45 114.97,46.45" fill="#0a321e"/>
<polygon points="-25.96,32.96 -14.83,37.45 -25.96,41.95 -37.09,37.45" fill="#006d32"/>
<polygon points="-37.09,46.45 -37.09,37.45 -25.96,41.95 -25.96,50.95" fill="#005f2c"/>
<polygon points="-25.96,50.95 -25.96,41.95 -14.83,37.45 -14.83,46.45" fill="#005025"/>
<polygon points="77.88,32.96 89.01,37.45 77.88,41.95 66.76,37.45" fill="#006d32"/>
<polygon points="66.76,46.45 66.76,37.45 77.88,41.95 77.88,50.95" fill="#005f2c"/>
<polygon points="77.88,50.95 77.88,41.95 89.01,37.45 89.01,46.45" fill="#005025"/>
<polygon points="116.83,45.20 127.95,49.70 116.83,54.19 105.70,49.70" fill="#161b22"/>
<polygon points="105.70,51.70 105.70,49.70 116.83,54.19 116.83,56.19" fill="#13171d"/>
<polygon points="116.83,56.19 116.83,54.19 127.95,49.70 127.95,51.70" fill="#101319"/>
<polygon points="-38.94,42.20 -27.82,46.70 -38.94,51.19 -50.07,46.70" fill="#0e4429"/>
<polygon points="-50.07,51.70 -50.07,46.70 -38.94,51.19 -38.94,56.19" fill="#0c3b24"/>
<polygon points="-38.94,56.19 -38.94,51.19 -27.82,46.70 -27.82,51.70" fill="#0a321e"/>
<polygon points="-12.98,42.20 -1.85,46.70 -12.98,51.19 -24.11,46.70" fill="#0e4429"/>
<polygon points="-24.11,51.70 -24.11,46.70 -12.98,51.19 -12.98,56.19" fill="#0c3b24"/>
<polygon points="-12.98,56.19 -12.98,51.19 -1.85,46.70 -1.85,51.70" fill="#0a321e"/>
<polygon points="12.98,42.20 24.11,46.70 12.98,51.19 1.85,46.70" fill="#0e4429"/>
<polygon points="1.85,51.70 1.85,46.70 12.98,51.19 12.98,56.19" fill="#0c3b24"/>
<polygon points="12.98,56.19 12.98,51.19 24.11,46.70 24.11,51.70" fill="#0a321e"/>
<polygon points="38.94,42.20 50.07,46.70 38.94,51.19 27.82,46.70" fill="#0e4429"/>
<polygon points="27.82,51.70 27.82,46.70 38.94,51.19 38.94,56.19" fill="#0c3b24"/>
<polygon points="38.94,56.19 38.94,51.19 50.07,46.70 50.07,51.70" fill="#0a321e"/>
<polygon points="64.90,38.20 76.03,42.70 64.90,47.19 53.78,42.70" fill="#006d32"/>
<polygon points="53.78,51.70 53.78,42.70 64.90,47.19 64.90,56.19" fill="#005f2c"/>
<polygon points="64.90,56.19 64.90,47.19 76.03,42.70 76.03,51.70" fill="#005025"/>
<polygon points="90.86,38.20 101.99,42.70 90.86,47.19 79.74,42.70" fill="#006d32"/>
<polygon points="79.74,51.70 79.74,42.70 90.86,47.19 90.86,56.19" fill="#005f2c"/>
<polygon points="90.86,56.19 90.86,47.19 101.99,42.70 101.99,51.70" fill="#005025"/>
<polygon points="-25.96,50.44 -14.83,54.94 -25.96,59.44 -37.09,54.94" fill="#161b22"/>
<polygon points="-37.09,56.94 -37.09,54.94 -25.96,59.44 -25.96,61.44" fill="#13171d"/>
<polygon points="-25.96,61.44 -25.96,59.44 -14.83,54.94 -14.83,56.94" fill="#101319"/>
<polygon points="0.00,50.44 11.13,54.94 0.00,59.44 -11.13,54.94" fill="#161b22"/>
<polygon points="-11.13,56.94 -11.13,54.94 0.00,59.44 0.00,61.44" fill="#13171d"/>
<polygon points="0.00,61.44 0.00,59.44 11.13,54.94 11.13,56.94" fill="#101319"/>
<polygon points="25.96,47.44 37.09,51.94 25.96,56.44 14.83,51.94" fill="#0e4429"/>
<polygon points="14.83,56.94 14.83,51.94 25.96,56.44 25.96,61.44" fill="#0c3b24"/>
<polygon points="25.96,61.44 25.96,56.44 37.09,51.94 37.09,56.94" fill="#0a321e"/>
<polygon points="129.81,47.44 140.93,51.94 129.81,56.44 118.68,51.94" fill="#0e4429"/>
<polygon points="118.68,56.94 118.68,51.94 129.81,56.44 129.81,61.44" fill="#0c3b24"/>
<polygon points="129.81,61.44 129.81,56.44 140.93,51.94 140.93,56.94" fill="#0a321e"/>
<polygon points="103.84,43.44 114.97,47.94 103.84,52.44 92.72,47.94" fill="#006d32"/>
<polygon points="92.72,56.94 92.72,47.94 103.84,52.44 103.84,61.44" fill="#005f2c"/>
<polygon points="103.84,61.44 103.84,52.44 114.97,47.94 114.97,56.94" fill="#005025"/>
<polygon points="51.92,39.44 63.05,43.94 51.92,48.44 40.80,43.94" fill="#26a641"/>
<polygon points="40.80,56.94 40.80,43.94 51.92,48.44 51.92,61.44" fill="#219239"/>
<polygon points="51.92,61.44 51.92,48.44 63.05,43.94 63.05,56.94" fill="#1c7a30"/>
<polygon points="77.88,35.44 89.01,39.94 77.88,44.44 66.76,39.94" fill="#39d353"/>
<polygon points="66.76,56.94 66.76,39.94 77.88,44.44 77.88,61.44" fill="#32b949"/>
<polygon points="77.88,61.44 77.88,44.44 89.01,39.94 89.01,56.94" fill="#2a9c3d"/>
<polygon points="-12.98,55.69 -1.85,60.18 -12.98,64.68 -24.11,60.18" fill="#161b22"/>
<polygon points="-24.11,62.18 -24.11,60.18 -12.98,64.68 -12.98,66.68" fill="#13171d"/>
<polygon points="-12.98,66.68 -12.98,64.68 -1.85,60.18 -1.85,62.18" fill="#101319"/>
<polygon points="142.79,52.69 153.91,57.18 142.79,61.68 131.66,57.18" fill="#0e4429"/>
<polygon points="131.66,62.18 131.66,57.18 142.79,61.68 142.79,66.68" fill="#0c3b24"/>
<polygon points="142.79,66.68 142.79,61.68 153.91,57.18 153.91,62.18" fill="#0a321e"/>
<polygon points="38.94,48.69 50.07,53.18 38.94,57.68 27.82,53.18" fill="#006d32"/>
<polygon points="27.82,62.18 27.82,53.18 38.94,57.68 38.94,66.68" fill="#005f2c"/>
<polygon points="38.94,66.68 38.94,57.68 50.07,53.18 50.07,62.18" fill="#005025"/>
<polygon points="90.86,48.69 101.99,53.18 90.86,57.68 79.74,53.18" fill="#006d32"/>
<polygon points="79.74,62.18 79.74,53.18 90.86,57.68 90.86,66.68" fill="#005f2c"/>
<polygon points="90.86,66.68 90.86,57.68 101.99,53.18 101.99,62.18" fill="#005025"/>
<polygon points="116.83,48.69 127.95,53.18 116.83,57.68 105.70,53.18" fill="#006d32"/>
<polygon points="105.70,62.18 105.70,53.18 116.83,57.68 116.83,66.68" fill="#005f2c"/>
<polygon points="116.83,66.68 116.83,57.68 127.95,53.18 127.95,62.18" fill="#005025"/>
<polygon points="64.90,44.69 76.03,49.18 64.90,53.68 53.78,49.18" fill="#26a641"/>
<polygon points="53.78,62.18 53.78,49.18 64.90,53.68 64.90,66.68" fill="#219239"/>
<polygon points="64.90,66.68 64.90,53.68 76.03,49.18 76.03,62.18" fill="#1c7a30"/>
<polygon points="12.98,40.69 24.11,45.18 12.98,49.68 1.85,45.18" fill="#39d353"/>
<polygon points="1.85,62.18 1.85,45.18 12.98,49.68 12.98,66.68" fill="#32b949"/>
<polygon points="12.98,66.68 12.98,49.68 24.11,45.18 24.11,62.18" fill="#2a9c3d"/>
<polygon points="25.96,60.93 37.09,65.43 25.96,69.92 14.83,65.43" fill="#161b22"/>
<polygon points="14.83,67.43 14.83,65.43 25.96,69.92 25.96,71.92" fill="#13171d"/>
<polygon points="25.96,71.92 25.96,69.92 37.09,65.43 37.09,67.43" fill="#101319"/>
<polygon points="0.00,57.93 11.13,62.43 0.00,66.92 -11.13,62.43" fill="#0e4429"/>
<polygon points="-11.13,67.43 -11.13,62.43 0.00,66.92 0.00,71.92" fill="#0c3b24"/>
<polygon points="0.00,71.92 0.00,66.92 11.13,62.43 11.13,67.43" fill="#0a321e"/>
<polygon points="51.92,57.93 63.05,62.43 51.92,66.92 40.80,62.43" fill="#0e4429"/>
<polygon points="40.80,67.43 40.80,62.43 51.92,66.92 51.92,71.92" fill="#0c3b24"/>
<polygon points="51.92,71.92 51.92,66.92 63.05,62.43 63.05,67.43" fill="#0a321e"/>
<polygon points="77.88,57.93 89.01,62.43 77.88,66.92 66.76,62.43" fill="#0e4429"/>
<polygon points="66.76,67.43 66.76,62.43 77.88,66.92 77.88,71.92" fill="#0c3b24"/>
<polygon points="77.88,71.92 77.88,66.92 89.01,62.43 89.01,67.43" fill="#0a321e"/>
<polygon points="103.84,57.93 114.97,62.43 103.84,66.92 92.72,62.43" fill="#0e4429"/>
<polygon points="92.72,67.43 92.72,62.43 103.84,66.92 103.84,71.92" fill="#0c3b24"/>
<polygon points="103.84,71.92 103.84,66.92 114.97,62.43 114.97,67.43" fill="#0a321e"/>
<polygon points="129.81,57.93 140.93,62.43 129.81,66.92 118.68,62.43" fill="#0e4429"/>
<polygon points="118.68,67.43 118.68,62.43 129.81,66.92 129.81,71.92" fill="#0c3b24"/>
<polygon points="129.81,71.92 129.81,66.92 140.93,62.43 140.93,67.43" fill="#0a321e"/>
<polygon points="155.77,53.93 166.89,58.43 155.77,62.92 144.64,58.43" fill="#006d32"/>
<polygon points="144.64,67.43 144.64,58.43 155.77,62.92 155.77,71.92" fill="#005f2c"/>
<polygon points="155.77,71.92 155.77,62.92 166.89,58.43 166.89,67.43" fill="#005025"/>
<polygon points="168.75,66.18 179.87,70.67 168.75,75.17 157.62,70.67" fill="#161b22"/>
<polygon points="157.62,72.67 157.62,70.67 168.75,75.17 168.75,77.17" fill="#13171d"/>
<polygon points="168.75,77.17 168.75,75.17 179.87,70.67 179.87,72.67" fill="#101319"/>
<polygon points="12.98,63.18 24.11,67.67 12.98,72.17 1.85,67.67" fill="#0e4429"/>
<polygon points="1.85,72.67 1.85,67.67 12.98,72.17 12.98,77.17" fill="#0c3b24"/>
<polygon points="12.98,77.17 12.98,72.17 24.11,67.67 24.11,72.67" fill="#0a321e"/>
<polygon points="38.94,63.18 50.07,67.67 38.94,72.17 27.82,67.67" fill="#0e4429"/>
<polygon points="27.82,72.67 27.82,67.67 38.94,72.17 38.94,77.17" fill="#0c3b24"/>
<polygon points="38.94,77.17 38.94,72.17 50.07,67.67 50.07,72.67" fill="#0a321e"/>
<polygon points="64.90,63.18 76.03,67.67 64.90,72.17 53.78,67.67" fill="#0e4429"/>
<polygon points="53.78,72.67 53.78,67.67 64.90,72.17 64.90,77.17" fill="#0c3b24"/>
<polygon points="64.90,77.17 64.90,72.17 76.03,67.67 76.03,72.67" fill="#0a321e"/>
<polygon points="90.86,63.18 101.99,67.67 90.86,72.17 79.74,67.67" fill="#0e4429"/>
<polygon points="79.74,72.67 79.74,67.67 90.86,72.17 90.86,77.17" fill="#0c3b24"/>
<polygon points="90.86,77.17 90.86,72.17 101.99,67.67 101.99,72.67" fill="#0a321e"/>
<polygon points="116.83,63.18 127.95,67.67 116.83,72.17 105.70,67.67" fill="#0e4429"/>
<polygon points="105.70,72.67 105.70,67.67 116.83,72.17 116.83,77.17" fill="#0c3b24"/>
<polygon points="116.83,77.17 116.83,72.17 127.95,67.67 127.95,72.67" fill="#0a321e"/>
<polygon points="142.79,63.18 153.91,67.67 142.79,72.17 131.66,67.67" fill="#0e4429"/>
<polygon points="131.66,72.67 131.66,67.67 142.79,72.17 142.79,77.17" fill="#0c3b24"/>
<polygon points="142.79,77.17 142.79,72.17 153.91,67.67 153.91,72.67" fill="#0a321e"/>
<polygon points="25.96,71.42 37.09,75.92 25.96,80.41 14.83,75.92" fill="#161b22"/>
<polygon points="14.83,77.92 14.83,75.92 25.96,80.41 25.96,82.41" fill="#13171d"/>
<polygon points="25.96,82.41 25.96,80.41 37.09,75.92 37.09,77.92" fill="#101319"/>
<polygon points="77.88,71.42 89.01,75.92 77.88,80.41 66.76,75.92" fill="#161b22"/>
<polygon points="66.76,77.92 66.76,75.92 77.88,80.41 77.88,82.41" fill="#13171d"/>
<polygon points="77.88,82.41 77.88,80.41 89.01,75.92 89.01,77.92" fill="#101319"/>
<polygon points="181.73,71.42 192.85,75.92 181.73,80.41 170.60,75.92" fill="#161b22"/>
<polygon points="170.60,77.92 170.60,75.92 181.73,80.41 181.73,82.41" fill="#13171d"/>
<polygon points="181.73,82.41 181.73,80.41 192.85,75.92 192.85,77.92" fill="#101319"/>
<polygon points="51.92,68.42 63.05,72.92 51.92,77.41 40.80,72.92" fill="#0e4429"/>
<polygon points="40.80,77.92 40.80,72.92 51.92,77.41 51.92,82.41" fill="#0c3b24"/>
<polygon points="51.92,82.41 51.92,77.41 63.05,72.92 63.05,77.92" fill="#0a321e"/>
<polygon points="129.81,68.42 140.93,72.92 129.81,77.41 118.68,72.92" fill="#0e4429"/>
<polygon points="118.68,77.92 118.68,72.92 129.81,77.41 129.81,82.41" fill="#0c3b24"/>
<polygon points="129.81,82.41 129.81,77.41 140.93,72.92 140.93,77.92" fill="#0a321e"/>
<polygon points="155.77,68.42 166.89,72.92 155.77,77.41 144.64,72.92" fill="#0e4429"/>
<polygon points="144.64,77.92 144.64,72.92 155.77,77.41 155.77,82.41" fill="#0c3b24"/>
<polygon points="155.77,82.41 155.77,77.41 166.89,72.92 166.89,77.92" fill="#0a321e"/>
<polygon points="103.84,64.42 114.97,68.92 103.84,73.41 92.72,68.92" fill="#006d32"/>
<polygon points="92.72,77.92 92.72,68.92 103.84,73.41 103.84,82.41" fill="#005f2c"/>
<polygon points="103.84,82.41 103.84,73.41 114.97,68.92 114.97,77.92" fill="#005025"/>
<polygon points="38.94,76.67 50.07,81.16 38.94,85.66 27.82,81.16" fill="#161b22"/>
<polygon points="27.82,83.16 27.82,81.16 38.94,85.66 38.94,87.66" fill="#13171d"/>
<polygon points="38.94,87.66 38.94,85.66 50.07,81.16 50.07,83.16" fill="#101319"/>
<polygon points="194.71,76.67 205.83,81.16 194.71,85.66 183.58,81.16" fill="#161b22"/>
<polygon points="183.58,83.16 183.58,81.16 194.71,85.66 194.71,87.66" fill="#13171d"/>
<polygon points="194.71,87.66 194.71,85.66 205.83,81.16 205.83,83.16" fill="#101319"/>
<polygon points="64.90,73.67 76.03,78.16 64.90,82.66 53.78,78.16" fill="#0e4429"/>
<polygon points="53.78,83.16 53.78,78.16 64.90,82.66 64.90,87.66" fill="#0c3b24"/>
<polygon points="64.90,87.66 64.90,82.66 76.03,78.16 76.03,83.16" fill="#0a321e"/>
<polygon points="90.86,73.67 101.99,78.16 90.86,82.66 79.74,78.16" fill="#0e4429"/>
<polygon points="79.74,83.16 79.74,78.16 90.86,82.66 90.86,87.66" fill="#0c3b24"/>
<polygon points="90.86,87.66 90.86,82.66 101.99,78.16 101.99,83.16" fill="#0a321e"/>
<polygon points="116.83,73.67 127.95,78.16 116.83,82.66 105.70,78.16" fill="#0e4429"/>
<polygon points="105.70,83.16 105.70,78.16 116.83,82.66 116.83,87.66" fill="#0c3b24"/>
<polygon points="116.83,87.66 116.83,82.66 127.95,78.16 127.95,83.16" fill="#0a321e"/>
<polygon points="142.79,73.67 153.91,78.16 142.79,82.66 131.66,78.16" fill="#0e4429"/>
<polygon points="131.66,83.16 131.66,78.16 142.79,82.66 142.79,87.66" fill="#0c3b24"/>
<polygon points="142.79,87.66 142.79,82.66 153.91,78.16 153.91,83.16" fill="#0a321e"/>
<polygon points="168.75,69.67 179.87,74.16 168.75,78.66 157.62,74.16" fill="#006d32"/>
<polygon points="157.62,83.16 157.62,74.16 168.75,78.66 168.75,87.66" fill="#005f2c"/>
<polygon points="168.75,87.66 168.75,78.66 179.87,74.16 179.87,83.16" fill="#005025"/>
<polygon points="103.84,81.91 114.97,86.41 103.84,90.90 92.72,86.41" fill="#161b22"/>
<polygon points="92.72,88.41 92.72,86.41 103.84,90.90 103.84,92.90" fill="#13171d"/>
<polygon points="103.84,92.90 103.84,90.90 114.97,86.41 114.97,88.41" fill="#101319"/>
<polygon points="181.73,81.91 192.85,86.41 181.73,90.90 170.60,86.41" fill="#161b22"/>
<polygon points="170.60,88.41 170.60,86.41 181.73,90.90 181.73,92.90" fill="#13171d"/>
<polygon points="181.73,92.90 181.73,90.90 192.85,86.41 192.85,88.41" fill="#101319"/>
<polygon points="207.69,81.91 218.82,86.41 207.69,90.90 196.56,86.41" fill="#161b22"/>
<polygon points="196.56,88.41 196.56,86.41 207.69,90.90 207.69,92.90" fill="#13171d"/>
<polygon points="207.69,92.90 207.69,90.90 218.82,86.41 218.82,88.41" fill="#101319"/>
<polygon points="51.92,78.91 63.05,83.41 51.92,87.90 40.80,83.41" fill="#0e4429"/>
<polygon points="40.80,88.41 40.80,83.41 51.92,87.90 51.92,92.90" fill="#0c3b24"/>
<polygon points="51.92,92.90 51.92,87.90 63.05,83.41 63.05,88.41" fill="#0a321e"/>
<polygon points="77.88,78.91 89.01,83.41 77.88,87.90 66.76,83.41" fill="#0e4429"/>
<polygon points="66.76,88.41 66.76,83.41 77.88,87.90 77.88,92.90" fill="#0c3b24"/>
<polygon points="77.88,92.90 77.88,87.90 89.01,83.41 89.01,88.41" fill="#0a321e"/>
<polygon points="129.81,78.91 140.93,83.41 129.81,87.90 118.68,83.41" fill="#0e4429"/>
<polygon points="118.68,88.41 118.68,83.41 129.81,87.90 129.81,92.90" fill="#0c3b24"/>
<polygon points="129.81,92.90 129.81,87.90 140.93,83.41 140.93,88.41" fill="#0a321e"/>
<polygon points="155.77,70.91 166.89,75.41 155.77,79.90 144.64,75.41" fill="#26a641"/>
<polygon points="144.64,88.41 144.64,75.41 155.77,79.90 155.77,92.90" fill="#219239"/>
<polygon points="155.77,92.90 155.77,79.90 166.89,75.41 166.89,88.41" fill="#1c7a30"/>
<polygon points="64.90,87.16 76.03,91.65 64.90,96.15 53.78,91.65" fill="#161b22"/>
<polygon points="53.78,93.65 53.78,91.65 64.90,96.15 64.90,98.15" fill="#13171d"/>
<polygon points="64.90,98.15 64.90,96.15 76.03,91.65 76.03,93.65" fill="#101319"/>
<polygon points="90.86,87.16 101.99,91.65 90.86,96.15 79.74,91.65" fill="#161b22"/>
<polygon points="79.74,93.65 79.74,91.65 90.86,96.15 90.86,98.15" fill="#13171d"/>
<polygon points="90.86,98.15 90.86,96.15 101.99,91.65 101.99,93.65" fill="#101319"/>
<polygon points="116.83,87.16 127.95,91.65 116.83,96.15 105.70,91.65" fill="#161b22"/>
<polygon points="105.70,93.65 105.70,91.65 116.83,96.15 116.83,98.15" fill="#13171d"/>
<polygon points="116.83,98.15 116.83,96.15 127.95,91.65 127.95,93.65" fill="#101319"/>
<polygon points="168.75,84.16 179.87,88.65 168.75,93.15 157.62,88.65" fill="#0e4429"/>
<polygon points="157.62,93.65 157.62,88.65 168.75,93.15 168.75,98.15" fill="#0c3b24"/>
<polygon points="168.75,98.15 168.75,93.15 179.87,88.65 179.87,93.65" fill="#0a321e"/>
<polygon points="194.71,84.16 205.83,88.65 194.71,93.15 183.58,88.65" fill="#0e4429"/>
<polygon points="183.58,93.65 183.58,88.65 194.71,93.15 194.71,98.15" fill="#0c3b24"/>
<polygon points="194.71,98.15 194.71,93.15 205.83,88.65 205.83,93.65" fill="#0a321e"/>
<polygon points="142.79,80.16 153.91,84.65 142.79,89.15 131.66,84.65" fill="#006d32"/>
<polygon points="131.66,93.65 131.66,84.65 142.79,89.15 142.79,98.15" fill="#005f2c"/>
<polygon points="142.79,98.15 142.79,89.15 153.91,84.65 153.91,93.65" fill="#005025"/>
<polygon points="77.88,92.40 89.01,96.90 77.88,101.39 66.76,96.90" fill="#161b22"/>
<polygon points="66.76,98.90 66.76,96.90 77.88,101.39 77.88,103.39" fill="#13171d"/>
<polygon points="77.88,103.39 77.88,101.39 89.01,96.90 89.01,98.90" fill="#101319"/>
<polygon points="103.84,89.40 114.97,93.90 103.84,98.39 92.72,93.90" fill="#0e4429"/>
<polygon points="92.72,98.90 92.72,93.90 103.84,98.39 103.84,103.39" fill="#0c3b24"/>
<polygon points="103.84,103.39 103.84,98.39 114.97,93.90 114.97,98.90" fill="#0a321e"/>
<polygon points="129.81,89.40 140.93,93.90 129.81,98.39 118.68,93.90" fill="#0e4429"/>
<polygon points="118.68,98.90 118.68,93.90 129.81,98.39 129.81,103.39" fill="#0c3b24"/>
<polygon points="129.81,103.39 129.81,98.39 140.93,93.90 140.93,98.90" fill="#0a321e"/>
<polygon points="155.77,89.40 166.89,93.90 155.77,98.39 144.64,93.90" fill="#0e4429"/>
<polygon points="144.64,98.90 144.64,93.90 155.77,98.39 155.77,103.39" fill="#0c3b24"/>
<polygon points="155.77,103.39 155.77,98.39 166.89,93.90 166.89,98.90" fill="#0a321e"/>
<polygon points="181.73,89.40 192.85,93.90 181.73,98.39 170.60,93.90" fill="#0e4429"/>
<polygon points="170.60,98.90 170.60,93.90 181.73,98.39 181.73,103.39" fill="#0c3b24"/>
<polygon points="181.73,103.39 181.73,98.39 192.85,93.90 192.85,98.90" fill="#0a321e"/>
<polygon points="90.86,97.65 101.99,102.14 90.86,106.64 79.74,102.14" fill="#161b22"/>
<polygon points="79.74,104.14 79.74,102.14 90.86,106.64 90.86,108.64" fill="#13171d"/>
<polygon points="90.86,108.64 90.86,106.64 101.99,102.14 101.99,104.14" fill="#101319"/>
<polygon points="168.75,94.65 179.87,99.14 168.75,103.64 157.62,99.14" fill="#0e4429"/>
<polygon points="157.62,104.14 157.62,99.14 168.75,103.64 168.75,108.64" fill="#0c3b24"/>
<polygon points="168.75,108.64 168.75,103.64 179.87,99.14 179.87,104.14" fill="#0a321e"/>
<polygon points="116.83,90.65 127.95,95.14 116.83,99.64 105.70,95.14" fill="#006d32"/>
<polygon points="105.70,104.14 105.70,95.14 116.83,99.64 116.83,108.64" fill="#005f2c"/>
<polygon points="116.83,108.64 116.83,99.64 127.95,95.14 127.95,104.14" fill="#005025"/>
<polygon points="142.79,90.65 153.91,95.14 142.79,99.64 131.66,95.14" fill="#006d32"/>
<polygon points="131.66,104.14 131.66,95.14 142.79,99.64 142.79,108.64" fill="#005f2c"/>
<polygon points="142.79,108.64 142.79,99.64 153.91,95.14 153.91,104.14" fill="#005025"/>
<polygon points="103.84,102.89 114.97,107.39 103.84,111.88 92.72,107.39" fill="#161b22"/>
<polygon points="92.72,109.39 92.72,107.39 103.84,111.88 103.84,113.88" fill="#13171d"/>
<polygon points="103.84,113.88 103.84,111.88 114.97,107.39 114.97,109.39" fill="#101319"/>
<polygon points="129.81,99.89 140.93,104.39 129.81,108.88 118.68,104.39" fill="#0e4429"/>
<polygon points="118.68,109.39 118.68,104.39 129.81,108.88 129.81,113.88" fill="#0c3b24"/>
<polygon points="129.81,113.88 129.81,108.88 140.93,104.39 140.93,109.39" fill="#0a321e"/>
<polygon points="155.77,87.89 166.89,92.39 155.77,96.88 144.64,92.39" fill="#39d353"/>
<polygon points="144.64,109.39 144.64,92.39 155.77,96.88 155.77,113.88" fill="#32b949"/>
<polygon points="155.77,113.88 155.77,96.88 166.89,92.39 166.89,109.39" fill="#2a9c3d"/>
<polygon points="116.83,108.13 127.95,112.63 116.83,117.12 105.70,112.63" fill="#161b22"/>
<polygon points="105.70,114.63 105.70,112.63 116.83,117.12 116.83,119.12" fill="#13171d"/>
<polygon points="116.83,119.12 116.83,117.12 127.95,112.63 127.95,114.63" fill="#101319"/>
<text x="430.67" y="19.00" text-anchor="end" font-family='-apple-system, BlinkMacSystemFont, "Segoe UI", Helvetica, Arial, sans-serif' font-size="38" font-weight="700" fill="#39d353">462</text>
<text x="430.67" y="33.00" text-anchor="end" font-family='-apple-system, BlinkMacSystemFont, "Segoe UI", Helvetica, Arial, sans-serif' font-size="10" fill="#7d8590" letter-spacing="0.8">TOTAL COMMITS</text>
<text x="-82.86" y="151.87" font-family='-apple-system, BlinkMacSystemFont, "Segoe UI", Helvetica, Arial, sans-serif' font-size="10" fill="#7d8590" letter-spacing="0.8">MOST ACTIVE DAYS</text>
<rect x="-82.86" y="188.97" width="10" height="20.90" rx="1" fill="#006d32"/>
<text x="-77.86" y="223.87" text-anchor="middle" font-family='-apple-system, BlinkMacSystemFont, "Segoe UI", Helvetica, Arial, sans-serif' font-size="10" fill="#7d8590">S</text>
<rect x="-68.86" y="176.29" width="10" height="33.58" rx="1" fill="#006d32"/>
<text x="-63.86" y="223.87" text-anchor="middle" font-family='-apple-system, BlinkMacSystemFont, "Segoe UI", Helvetica, Arial, sans-serif' font-size="10" fill="#7d8590">M</text>
<rect x="-54.86" y="162.11" width="10" height="47.76" rx="1" fill="#006d32"/>
<text x="-49.86" y="223.87" text-anchor="middle" font-family='-apple-system, BlinkMacSystemFont, "Segoe UI", Helvetica, Arial, sans-serif' font-size="10" fill="#7d8590">T</text>
<rect x="-40.86" y="159.87" width="10" height="50.00" rx="1" fill="#39d353"/>
<text x="-35.86" y="223.87" text-anchor="middle" font-family='-apple-system, BlinkMacSystemFont, "Segoe UI", Helvetica, Arial, sans-serif' font-size="10" fill="#7d8590">W</text>
<rect x="-26.86" y="162.11" width="10" height="47.76" rx="1" fill="#006d32"/>
<text x="-21.86" y="223.87" text-anchor="middle" font-family='-apple-system, BlinkMacSystemFont, "Segoe UI", Helvetica, Arial, sans-serif' font-size="10" fill="#7d8590">T</text>
<rect x="-12.86" y="165.84" width="10" height="44.03" rx="1" fill="#006d32"/>
<text x="-7.86" y="223.87" text-anchor="middle" font-family='-apple-system, BlinkMacSystemFont, "Segoe UI", Helvetica, Arial, sans-serif' font-size="10" fill="#7d8590">F</text>
<rect x="1.14" y="200.17" width="10" height="9.70" rx="1" fill="#006d32"/>
<text x="6.14" y="223.87" text-anchor="middle" font-family='-apple-system, BlinkMacSystemFont, "Segoe UI", Helvetica, Arial, sans-serif' font-size="10" fill="#7d8590">S</text>
</svg>